<svg width="109" height="110" viewBox="0 0 109 110" fill="none" xmlns="http://www.w3.org/2000/svg">
<path d="M54.5 0.75C24.3931 0.75 0 25.0312 0 55C0 84.9688 24.3931 109.25 54.5 109.25C84.6069 109.25 109 84.9688 109 55C109 25.0312 84.6069 0.75 54.5 0.75ZM19.8661 39.1625C21.3385 35.3125 25.7337 33.3219 29.7333 34.3719L31.2935 34.7875L31.7331 33.2344C32.8319 29.275 36.7435 26.475 40.853 27.1313C45.5558 27.875 48.4127 32.425 47.1821 36.8656L42.9188 52.1562C42.655 53.1406 41.6222 53.7313 40.6113 53.4688L25.1843 49.4875C20.7012 48.3063 18.174 43.5813 19.8661 39.1625ZM54.5 93.5C41.1827 93.5 24.9425 85.1219 22.8988 73.0906C22.4593 70.5094 24.9206 68.3875 27.4478 69.175C34.0845 71.2969 43.9516 72.5 54.5 72.5C65.0484 72.5 74.9155 71.2969 81.5522 69.175C84.0575 68.3875 86.5187 70.5094 86.1012 73.0906C84.0575 85.1219 67.8173 93.5 54.5 93.5ZM83.8157 49.4656L68.3887 53.4469C67.3998 53.7094 66.3669 53.1187 66.0813 52.1344L61.8179 36.8438C60.5873 32.4031 63.4442 27.8531 68.147 27.1094C72.2345 26.4531 76.1462 29.2531 77.2669 33.2125L77.7065 34.7656L79.2667 34.35C83.2663 33.3219 87.6615 35.2906 89.1339 39.1406C90.826 43.5812 88.2988 48.3062 83.8157 49.4656Z" fill="#2CF27C"/>
</svg>
